<?xml version="1.0" encoding="UTF-8" standalone="no"?>
<!DOCTYPE svg PUBLIC "-//W3C//DTD SVG 1.1//EN" "http://www.w3.org/Graphics/SVG/1.1/DTD/svg11.dtd">
<svg width="100%" height="100%" viewBox="0 0 769 330" version="1.1" xmlns="http://www.w3.org/2000/svg" xmlns:xlink="http://www.w3.org/1999/xlink" xml:space="preserve" xmlns:serif="http://www.serif.com/" style="fill-rule:evenodd;clip-rule:evenodd;stroke-linejoin:round;stroke-miterlimit:2;">
    <g transform="matrix(1,0,0,1,-3292,-3696)">
        <g id="Artboard2" transform="matrix(0.805236,0,0,0.8644,641.164,501.179)">
            <rect x="3292" y="3696" width="955" height="381.768" style="fill:none;"/>
            <g transform="matrix(3.74733,0,0,3.49084,1745.94,2866.17)">
                <g transform="matrix(0.188247,0,0,0.188247,374.23,192.998)">
                    <path d="M562.141,790.436C444.129,790.436 408.616,720.431 408.616,634.076C408.616,567.968 408.616,501.475 408.616,501.475L468.616,501.475L468.616,634.076C468.616,687.294 491.129,736.105 562.141,736.105L567.813,736.105C638.824,736.105 641.495,687.294 641.495,634.076L641.495,626.2L642,626.2L642,569.044C642,565.713 644.7,563.013 648.031,563.013C659.439,563.013 684.056,563.013 695.464,563.013C698.795,563.013 701.495,565.713 701.495,569.044L701.495,634.076C701.495,720.431 685.824,790.436 567.813,790.436L562.141,790.436Z" style="fill:rgb(46,56,56);fill-rule:nonzero;"/>
                </g>
                <g transform="matrix(-0.188247,0,0,0.188247,1009.33,-304.327)">
                    <path d="M3150.54,3041.85C3153.88,3042.96 3156.5,3045.58 3157.62,3048.91C3158.74,3052.24 3158.23,3055.91 3156.24,3058.81C3105.96,3130.91 3022.42,3178.13 2927.95,3178.13C2825.13,3178.13 2735.26,3122.21 2687.16,3039.13C2678.86,3024.8 2683.76,3006.43 2698.09,2998.14C2712.42,2989.84 2730.79,2994.74 2739.08,3009.07C2776.82,3074.24 2847.29,3118.13 2927.95,3118.13C2998.18,3118.13 3060.7,3084.86 3100.59,3033.23C3103.49,3029.43 3108.48,3027.89 3113.01,3029.4C3122.5,3032.53 3138.84,3037.97 3150.54,3041.85Z" style="fill:url(#_Linear1);"/>
                </g>
                <g transform="matrix(0.188247,0,0,0.188247,374.19,193.585)">
                    <path d="M431.906,393.752C421.202,375.201 412.583,355.313 406.36,334.4C402.408,321.115 408.071,306.852 420.059,299.896C461.034,276.123 508.609,262.5 559.342,262.5C610.074,262.5 657.649,276.123 698.624,299.896C710.613,306.852 716.276,321.117 712.322,334.402C696.644,387.085 665.764,433.25 624.775,467.787C640.256,471.282 656.37,473.129 672.912,473.129C742.221,473.129 804.02,440.723 843.973,390.25C847.869,385.255 854.487,383.253 860.499,385.251C868.784,387.973 880.672,391.924 890.644,395.238C895.162,396.739 898.7,400.296 900.176,404.823C901.651,409.35 900.891,414.308 898.125,418.184C847.524,487.808 765.469,533.129 672.912,533.129C570.092,533.129 480.223,477.208 432.122,394.132C432.049,394.006 431.977,393.88 431.906,393.752Z" style="fill:url(#_Linear2);"/>
                </g>
                <g transform="matrix(0.188247,0,0,0.188247,374.19,192.998)">
                    <path d="M1143.86,563.013C1142.62,563.013 1141.36,563.436 1140.05,564.283C1138.74,565.129 1137.85,566.092 1137.39,567.169L1097.21,656.759L1055.42,567.169C1054.81,565.938 1053.88,564.937 1052.65,564.167C1051.42,563.398 1050.19,563.013 1048.96,563.013L996.541,563.013C993.77,563.013 991.692,564.013 990.307,566.015C988.921,568.016 988.844,570.325 990.076,572.942L1073.43,742.886C1073.89,743.963 1074.82,744.925 1076.2,745.772C1077.59,746.619 1078.82,747.042 1079.9,747.042L1110.14,747.042C1111.22,747.042 1112.41,746.657 1113.72,745.887C1115.03,745.118 1115.99,744.194 1116.61,743.117L1200.66,573.173C1201.89,570.556 1201.85,568.208 1200.54,566.13C1199.24,564.052 1197.12,563.013 1194.19,563.013L1143.86,563.013ZM1353.29,744.271C1355.29,744.271 1356.94,743.578 1358.25,742.193C1359.56,740.808 1360.21,739.191 1360.21,737.344L1360.21,703.632C1360.21,701.631 1359.56,699.938 1358.25,698.552C1356.94,697.167 1355.29,696.474 1353.29,696.474L1269.47,696.474L1269.47,677.079L1335.74,676.848C1337.58,676.848 1339.2,676.155 1340.59,674.77C1341.97,673.384 1342.66,671.691 1342.66,669.69L1342.66,636.44C1342.66,634.593 1341.97,632.976 1340.59,631.591C1339.2,630.205 1337.58,629.513 1335.74,629.513L1269.47,629.513L1269.47,611.041L1347.05,611.041C1348.9,611.041 1350.51,610.348 1351.9,608.962C1353.29,607.577 1353.98,605.884 1353.98,603.883L1353.98,570.171C1353.98,568.324 1353.29,566.707 1351.9,565.322C1350.51,563.936 1348.9,563.244 1347.05,563.244L1212.43,563.244C1210.59,563.244 1208.97,563.936 1207.59,565.322C1206.2,566.707 1205.51,568.324 1205.51,570.171L1205.51,737.344C1205.51,739.191 1206.2,740.808 1207.59,742.193C1208.97,743.578 1210.59,744.271 1212.43,744.271L1353.29,744.271ZM1484.21,744.271C1486.21,744.271 1487.86,743.578 1489.17,742.193C1490.48,740.808 1491.13,739.191 1491.13,737.344L1491.13,608.732L1538.7,608.732C1540.7,608.732 1542.39,608.039 1543.78,606.653C1545.16,605.268 1545.86,603.575 1545.86,601.574L1545.86,570.171C1545.86,568.324 1545.16,566.707 1543.78,565.322C1542.39,563.936 1540.7,563.244 1538.7,563.244L1378.91,563.244C1376.91,563.244 1375.26,563.936 1373.95,565.322C1372.64,566.707 1371.99,568.324 1371.99,570.171L1371.99,601.574C1371.99,603.575 1372.64,605.268 1373.95,606.653C1375.26,608.039 1376.91,608.732 1378.91,608.732L1426.71,608.732L1426.71,737.344C1426.71,739.191 1427.4,740.808 1428.79,742.193C1430.17,743.578 1431.79,744.271 1433.64,744.271L1484.21,744.271Z" style="fill:rgb(46,56,56);fill-rule:nonzero;"/>
                </g>
                <g transform="matrix(0.188247,0,0,0.188247,374.19,192.998)">
                    <path d="M828.213,619.353C821.594,610.579 815.09,601.843 808.702,593.146C802.314,584.448 795.733,575.482 788.96,566.246C788.652,565.476 787.844,564.783 786.535,564.167C785.227,563.552 784.111,563.244 783.187,563.244L731.927,563.244C730.08,563.244 728.464,563.936 727.078,565.322C725.693,566.707 725,568.324 725,570.171L725,737.344C725,739.191 725.693,740.808 727.078,742.193C728.464,743.578 730.08,744.271 731.927,744.271L776.953,744.271C778.954,744.271 780.647,743.578 782.033,742.193C783.418,740.808 784.111,739.191 784.111,737.344L784.111,653.757L849.225,741.5C849.841,742.27 850.765,742.924 851.996,743.463C853.228,744.002 854.228,744.271 854.998,744.271L906.72,744.271C908.721,744.271 910.414,743.578 911.8,742.193C913.185,740.808 913.878,739.191 913.878,737.344L913.878,570.171C913.878,568.324 913.185,566.707 911.8,565.322C910.414,563.936 908.721,563.244 906.72,563.244L861.694,563.244C859.693,563.244 858,563.936 856.614,565.322C855.229,566.707 854.536,568.324 854.536,570.171L854.536,655.143C850.072,648.985 845.685,642.944 841.375,637.017C837.065,631.091 832.677,625.203 828.213,619.353ZM972.989,744.271C974.682,744.271 976.106,743.578 977.261,742.193C978.415,740.808 978.992,739.191 978.992,737.344L978.992,570.171C978.992,568.324 978.415,566.707 977.261,565.322C976.106,563.936 974.682,563.244 972.989,563.244L930.041,563.244C928.348,563.244 926.924,563.936 925.769,565.322C924.615,566.707 924.038,568.324 924.038,570.171L924.038,737.344C924.038,739.191 924.615,740.808 925.769,742.193C926.924,743.578 928.348,744.271 930.041,744.271L972.989,744.271Z" style="fill:rgb(46,56,56);fill-rule:nonzero;"/>
                </g>
            </g>
        </g>
    </g>
    <defs>
        <linearGradient id="_Linear1" x1="0" y1="0" x2="1" y2="0" gradientUnits="userSpaceOnUse" gradientTransform="matrix(263.884,3.23164e-14,3.23164e-14,-263.884,2894.32,3099.92)"><stop offset="0" style="stop-color:rgb(213,182,92);stop-opacity:1"/><stop offset="1" style="stop-color:rgb(240,222,167);stop-opacity:1"/></linearGradient>
        <linearGradient id="_Linear2" x1="0" y1="0" x2="1" y2="0" gradientUnits="userSpaceOnUse" gradientTransform="matrix(-492.84,-44.2878,44.2878,-492.84,851.996,441.114)"><stop offset="0" style="stop-color:rgb(213,182,92);stop-opacity:1"/><stop offset="1" style="stop-color:rgb(240,222,167);stop-opacity:1"/></linearGradient>
    </defs>
</svg>
